<?xml version="1.0" encoding="utf-8"?>
<!-- Generator: Adobe Illustrator 27.2.0, SVG Export Plug-In . SVG Version: 6.00 Build 0)  -->
<svg version="1.1" id="f6726dc3-cfb2-4029-971a-94faf561fb96"
	 xmlns="http://www.w3.org/2000/svg" xmlns:xlink="http://www.w3.org/1999/xlink" x="0px" y="0px" viewBox="0 0 20 20"
	 style="enable-background:new 0 0 20 20;" xml:space="preserve">
<style type="text/css">
	.st0{fill:#FFFFFF;}
</style>
<path class="st0" d="M19.6,7.7c-0.2,0-0.3,0.1-0.5,0.1c-0.9,0-1.7-0.7-1.7-1.7c0-0.2,0-0.3,0.1-0.5c-0.1,0-0.2,0-0.3,0
	c-1.3,0-2.3-1-2.3-2.3c0-0.2,0-0.3,0.1-0.5c-0.9,0-1.6-0.8-1.6-1.7c0-0.1,0-0.3,0.1-0.4c-1.1-0.4-2.3-0.7-3.6-0.7
	c-5.5,0-10,4.5-10,10s4.5,10,10,10c5.5,0,10-4.5,10-10C19.9,9.3,19.8,8.5,19.6,7.7z M7.9,3.3h1.7V5H7.9V3.3z M4.1,5.8h1.7v1.7H4.1
	V5.8z M4.8,11.3H3.1V9.6h1.7V11.3z M7.3,15H5.6v-1.7h1.7V15z M7.7,8.8h1.7v1.7H7.7V8.8z M10.8,17.2H9.1v-1.7h1.7V17.2z M13.5,14.3
	h-1.7v-1.7h1.7V14.3z M13.5,9h-1.7V7.3h1.7V9z M17.3,12.5h-1.7v-1.7h1.7V12.5z"/>
</svg>
